<svg id="visual" viewBox="0 0 900 600" width="900" height="600" xmlns="http://www.w3.org/2000/svg" xmlns:xlink="http://www.w3.org/1999/xlink" version="1.1"><rect x="0" y="0" width="900" height="600" fill="#FFFFFF"></rect><path d="M0 189L21.5 187.2C43 185.3 86 181.7 128.8 181.5C171.7 181.3 214.3 184.7 257.2 201.3C300 218 343 248 385.8 246.2C428.7 244.3 471.3 210.7 514.2 201C557 191.3 600 205.7 642.8 223.5C685.7 241.3 728.3 262.7 771.2 264.5C814 266.3 857 248.7 878.5 239.8L900 231L900 601L878.5 601C857 601 814 601 771.2 601C728.3 601 685.7 601 642.8 601C600 601 557 601 514.2 601C471.3 601 428.7 601 385.8 601C343 601 300 601 257.2 601C214.3 601 171.7 601 128.8 601C86 601 43 601 21.5 601L0 601Z" fill="#0c9815"></path><path d="M0 307L21.5 300C43 293 86 279 128.8 269.2C171.7 259.3 214.3 253.7 257.2 261.7C300 269.7 343 291.3 385.8 303.8C428.7 316.3 471.3 319.7 514.2 307.3C557 295 600 267 642.8 254.7C685.7 242.3 728.3 245.7 771.2 254.7C814 263.7 857 278.3 878.5 285.7L900 293L900 601L878.5 601C857 601 814 601 771.2 601C728.3 601 685.7 601 642.8 601C600 601 557 601 514.2 601C471.3 601 428.7 601 385.8 601C343 601 300 601 257.2 601C214.3 601 171.7 601 128.8 601C86 601 43 601 21.5 601L0 601Z" fill="#098b12"></path><path d="M0 378L21.5 363.5C43 349 86 320 128.8 319.5C171.7 319 214.3 347 257.2 355.3C300 363.7 343 352.3 385.8 347.2C428.7 342 471.3 343 514.2 348.3C557 353.7 600 363.3 642.8 355.8C685.7 348.3 728.3 323.7 771.2 319C814 314.3 857 329.7 878.5 337.3L900 345L900 601L878.5 601C857 601 814 601 771.2 601C728.3 601 685.7 601 642.8 601C600 601 557 601 514.2 601C471.3 601 428.7 601 385.8 601C343 601 300 601 257.2 601C214.3 601 171.7 601 128.8 601C86 601 43 601 21.5 601L0 601Z" fill="#067e0f"></path><path d="M0 350L21.5 351C43 352 86 354 128.8 359C171.7 364 214.3 372 257.2 382.5C300 393 343 406 385.8 402.3C428.7 398.7 471.3 378.3 514.2 368.5C557 358.7 600 359.3 642.8 366.2C685.7 373 728.3 386 771.2 396.8C814 407.7 857 416.3 878.5 420.7L900 425L900 601L878.5 601C857 601 814 601 771.2 601C728.3 601 685.7 601 642.8 601C600 601 557 601 514.2 601C471.3 601 428.7 601 385.8 601C343 601 300 601 257.2 601C214.3 601 171.7 601 128.8 601C86 601 43 601 21.5 601L0 601Z" fill="#04720c"></path><path d="M0 399L21.5 410.3C43 421.7 86 444.3 128.8 454.3C171.7 464.3 214.3 461.7 257.2 457.2C300 452.7 343 446.3 385.8 439.8C428.7 433.3 471.3 426.7 514.2 425.2C557 423.7 600 427.3 642.8 431.7C685.7 436 728.3 441 771.2 441.7C814 442.3 857 438.7 878.5 436.8L900 435L900 601L878.5 601C857 601 814 601 771.2 601C728.3 601 685.7 601 642.8 601C600 601 557 601 514.2 601C471.3 601 428.7 601 385.8 601C343 601 300 601 257.2 601C214.3 601 171.7 601 128.8 601C86 601 43 601 21.5 601L0 601Z" fill="#026609"></path><path d="M0 477L21.5 473.8C43 470.7 86 464.3 128.8 461C171.7 457.7 214.3 457.3 257.2 465.7C300 474 343 491 385.8 497.3C428.7 503.7 471.3 499.3 514.2 494C557 488.7 600 482.3 642.8 484.7C685.7 487 728.3 498 771.2 501.5C814 505 857 501 878.5 499L900 497L900 601L878.5 601C857 601 814 601 771.2 601C728.3 601 685.7 601 642.8 601C600 601 557 601 514.2 601C471.3 601 428.7 601 385.8 601C343 601 300 601 257.2 601C214.3 601 171.7 601 128.8 601C86 601 43 601 21.5 601L0 601Z" fill="#015a07"></path><path d="M0 559L21.5 560.5C43 562 86 565 128.8 566C171.7 567 214.3 566 257.2 558C300 550 343 535 385.8 527.7C428.7 520.3 471.3 520.7 514.2 522C557 523.3 600 525.7 642.8 523.8C685.7 522 728.3 516 771.2 512.8C814 509.7 857 509.3 878.5 509.2L900 509L900 601L878.5 601C857 601 814 601 771.2 601C728.3 601 685.7 601 642.8 601C600 601 557 601 514.2 601C471.3 601 428.7 601 385.8 601C343 601 300 601 257.2 601C214.3 601 171.7 601 128.8 601C86 601 43 601 21.5 601L0 601Z" fill="#004e05"></path></svg>